<svg xmlns="http://www.w3.org/2000/svg" version="1.1" xmlns:xlink="http://www.w3.org/1999/xlink" xmlns:svgjs="http://svgjs.com/svgjs" width="1440" height="500" preserveAspectRatio="none" viewBox="0 0 1440 500"><g mask="url(&quot;#SvgjsMask1018&quot;)" fill="none"><rect width="1440" height="500" x="0" y="0" fill="#0e2a47"></rect><path d="M2 500L502 0L556 0L56 500z" fill="url(#SvgjsLinearGradient1019)"></path><path d="M336.8 500L836.8 0L992.8 0L492.8 500z" fill="url(#SvgjsLinearGradient1019)"></path><path d="M687.6 500L1187.6 0L1616.6 0L1116.6 500z" fill="url(#SvgjsLinearGradient1019)"></path><path d="M1398 500L898 0L502 0L1002 500z" fill="url(#SvgjsLinearGradient1020)"></path><path d="M1117.2 500L617.2 0L312.70000000000005 0L812.7 500z" fill="url(#SvgjsLinearGradient1020)"></path><path d="M799.4 500L299.4 0L99.89999999999998 0L599.9 500z" fill="url(#SvgjsLinearGradient1020)"></path><path d="M970.3754616726937 500L1440 30.375461672693746L1440 500z" fill="url(#SvgjsLinearGradient1019)"></path><path d="M0 500L469.62453832730625 500L 0 30.375461672693746z" fill="url(#SvgjsLinearGradient1020)"></path></g><defs><mask id="SvgjsMask1018"><rect width="1440" height="500" fill="#ffffff"></rect></mask><linearGradient x1="0%" y1="100%" x2="100%" y2="0%" id="SvgjsLinearGradient1019"><stop stop-color="rgba(15, 70, 185, 0.2)" offset="0"></stop><stop stop-opacity="0" stop-color="rgba(15, 70, 185, 0.2)" offset="0.66"></stop></linearGradient><linearGradient x1="100%" y1="100%" x2="0%" y2="0%" id="SvgjsLinearGradient1020"><stop stop-color="rgba(15, 70, 185, 0.2)" offset="0"></stop><stop stop-opacity="0" stop-color="rgba(15, 70, 185, 0.2)" offset="0.66"></stop></linearGradient></defs></svg>