<svg xmlns="http://www.w3.org/2000/svg" version="1.1" xmlns:xlink="http://www.w3.org/1999/xlink" xmlns:svgjs="http://svgjs.com/svgjs" width="1440" height="560" preserveAspectRatio="none" viewBox="0 0 1440 560"><g mask="url(&quot;#SvgjsMask1003&quot;)" fill="none"><rect width="1440" height="560" x="0" y="0" fill="rgba(32, 65, 209, 0.52)"></rect><path d="M0,493.411C118.818,507.485,236.324,584.117,348.307,541.977C464.54,498.237,531.682,378.882,592.334,270.51C657.16,154.68,740.665,26.93,708.658,-101.89C676.805,-230.092,530.888,-286.719,432.095,-374.413C347.418,-449.577,280.356,-553.426,170.248,-579.811C61.774,-605.805,-43.506,-544.053,-150.963,-514.133C-260.156,-483.73,-387.191,-485.345,-465.011,-402.934C-543.536,-319.776,-558.029,-194.919,-560.37,-80.569C-562.529,24.865,-523.266,123.054,-477.728,218.171C-432.923,311.756,-388.933,413.502,-299.03,465.299C-210.488,516.312,-101.477,481.391,0,493.411" fill="rgba(21, 42, 136, 0.52)"></path><path d="M1440 1093.742C1537.76 1109.479 1624.254 1029.325 1703.2440000000001 969.615 1777.48 913.499 1849.864 849.004 1880.161 761.015 1909.247 676.543 1887.68 585.347 1865.344 498.845 1844.97 419.94 1803.392 352.27 1757.269 285.085 1705.535 209.72699999999998 1667.631 109.20499999999998 1580.002 83.19799999999998 1492.368 57.18900000000002 1410.203 134.488 1321.284 155.69099999999997 1225.909 178.43400000000003 1105.05 140.08300000000003 1038.703 212.27499999999998 972.579 284.225 1002.867 400.099 1006.934 497.734 1010.356 579.865 1020.5319999999999 661.471 1060.411 733.352 1098.368 801.768 1169.377 838.9390000000001 1226.117 892.809 1298.524 961.554 1341.426 1077.874 1440 1093.742" fill="rgba(95, 120, 231, 0.52)"></path></g><defs><mask id="SvgjsMask1003"><rect width="1440" height="560" fill="#ffffff"></rect></mask></defs></svg>